<svg xmlns="http://www.w3.org/2000/svg" viewBox="0.00 0.00 1254.00 1254.00" role="img" aria-labelledby="title">
  <title id="title">birds.in.ua icon</title>
  <rect x="0" y="0" width="1254" height="1254" fill="#FFF9E9" />
  <path fill="#315022" fill-rule="evenodd" d="M 653.50 140.00 L 670.00 139.50 L 692.00 143.50 L 714.00 153.50 L 726.00 162.50 L 736.50 175.00 L 744.50 193.00 L 746.50 202.00 L 745.50 230.00 L 736.50 258.00 L 718.50 296.00 L 631.50 451.00 L 600.50 516.00 L 569.50 595.00 L 552.50 648.00 L 543.50 684.00 L 575.50 643.00 L 613.00 605.50 L 650.00 577.50 L 687.00 557.50 L 732.00 541.50 L 775.00 534.50 L 804.00 534.50 L 820.00 536.50 L 839.00 540.50 L 860.00 547.50 L 881.00 557.50 L 898.00 568.50 L 920.50 588.00 L 946.50 621.00 L 967.50 663.00 L 979.50 703.00 L 985.50 750.00 L 984.50 791.00 L 980.50 819.00 L 974.50 845.00 L 960.50 885.00 L 945.50 916.00 L 928.50 944.00 L 896.50 985.00 L 869.00 1012.50 L 840.00 1036.50 L 812.00 1055.50 L 777.00 1074.50 L 736.00 1091.50 L 687.00 1104.50 L 645.00 1109.50 L 616.00 1109.50 L 583.00 1105.50 L 557.00 1098.50 L 531.00 1086.50 L 514.00 1074.50 L 507.00 1067.50 L 499.50 1077.00 L 484.00 1091.50 L 462.00 1105.50 L 436.00 1113.50 L 409.00 1112.50 L 399.00 1109.50 L 382.00 1099.50 L 369.50 1087.00 L 356.50 1068.00 L 345.50 1046.00 L 332.50 1009.00 L 325.50 978.00 L 321.50 949.00 L 319.50 882.00 L 324.50 808.00 L 338.50 715.00 L 358.50 627.00 L 384.50 537.00 L 401.50 486.00 L 426.50 420.00 L 462.50 339.00 L 486.50 292.00 L 508.50 254.00 L 531.50 219.00 L 547.50 199.00 L 566.00 179.50 L 578.00 169.50 L 596.00 157.50 L 617.00 147.50 L 634.00 142.50 Z" />
  <g fill="none" stroke="#FFF9E9" stroke-width="27" stroke-linecap="round" stroke-linejoin="round" transform="translate(0.0 0.0) scale(1.0)"><path d="M 510,963 L 722,693 C 755,648 811,644 836,684 C 854,712 844,755 837,800 C 829,869 785,902 721,903 L 561,903" /><path d="M 704,729 C 766,758 738,861 680,902" /><path d="M 657,905 L 660,965 M 728,904 L 734,965" /><path d="M 848,716 L 879,720 L 847,738" /><circle cx="793" cy="720" r="13" fill="#FFF9E9" stroke="none" /></g></svg>